<svg width="25" height="25" viewBox="0 0 25 25" fill="none" xmlns="http://www.w3.org/2000/svg">
<path d="M21.0451 2.72998H3.8576C3.236 2.72998 2.63986 2.97691 2.20032 3.41645C1.76079 3.85599 1.51385 4.45213 1.51385 5.07373L1.51385 22.2612C1.51385 22.8828 1.76079 23.479 2.20032 23.9185C2.63986 24.3581 3.236 24.605 3.8576 24.605H10.5593V17.168H7.48309V13.6675H10.5593V10.9995C10.5593 7.96484 12.3659 6.28857 15.133 6.28857C16.4582 6.28857 17.8439 6.5249 17.8439 6.5249V9.50342H16.3171C14.8127 9.50342 14.3434 10.437 14.3434 11.3945V13.6675H17.7018L17.1647 17.168H14.3434V24.605H21.0451C21.6667 24.605 22.2628 24.3581 22.7024 23.9185C23.1419 23.479 23.3889 22.8828 23.3889 22.2612V5.07373C23.3889 4.45213 23.1419 3.85599 22.7024 3.41645C22.2628 2.97691 21.6667 2.72998 21.0451 2.72998V2.72998Z" fill="white"/>
</svg>
