<svg width="146" height="320" viewBox="0 0 146 320" fill="none" xmlns="http://www.w3.org/2000/svg">
<path d="M0 0.334351H10.4405C12.9395 0.334351 15.1609 0.835024 17.0491 1.78074C18.9928 2.72646 20.4367 4.06159 21.5474 5.84176C22.6026 7.5663 23.1579 9.62463 23.1579 11.9055C23.1579 14.1863 22.6026 16.2446 21.5474 17.9692C20.4922 19.6937 18.9928 21.0289 17.0491 22.0302C15.1054 22.9759 12.9395 23.4766 10.4405 23.4766H0V0.389981V0.334351ZM10.2184 19.0262C12.4953 19.0262 14.3834 18.3586 15.7163 17.0791C17.1046 15.7996 17.771 14.0751 17.771 11.8498C17.771 9.68025 17.1046 7.90008 15.7163 6.62058C14.3279 5.34108 12.4953 4.67352 10.2184 4.67352H5.33131V18.9705H10.2184V19.0262Z" fill="white"/>
<path d="M28.9332 0.334351H34.2645V23.421H28.9332V0.334351Z" fill="white"/>
<path d="M57.0893 11.5155H61.9764V20.8614C60.7546 21.8071 59.2552 22.5303 57.6447 23.031C55.9786 23.5317 54.3681 23.8098 52.7021 23.8098C50.3141 23.8098 48.1483 23.3091 46.2601 22.2522C44.3719 21.2508 42.8725 19.8044 41.7618 18.0242C40.6511 16.1884 40.1513 14.1857 40.1513 11.9049C40.1513 9.62406 40.7067 7.56573 41.7618 5.78556C42.8725 3.94976 44.3719 2.559 46.2601 1.55765C48.2038 0.556304 50.3697 0 52.7576 0C54.7569 0 56.5895 0.333782 58.2556 1.00135C59.9216 1.66891 61.2544 2.67026 62.4207 3.94976L58.9775 7.12069C57.3115 5.39615 55.3678 4.50606 53.0353 4.50606C51.5914 4.50606 50.2586 4.83984 49.1479 5.45178C47.9817 6.06371 47.0931 6.9538 46.4822 8.06641C45.8714 9.17901 45.5382 10.4585 45.5382 11.9049C45.5382 13.3513 45.8714 14.6308 46.4822 15.7434C47.0931 16.856 47.9817 17.7461 49.1479 18.358C50.2586 18.97 51.5914 19.3037 53.0353 19.3037C54.5903 19.3037 55.9786 18.97 57.2004 18.3024V11.5711L57.0893 11.5155Z" fill="white"/>
<path d="M68.6406 0.334351H73.9719V23.421H68.6406V0.334351Z" fill="white"/>
<path d="M85.9678 4.67352H78.6372V0.334351H98.6852V4.67352H91.2991V23.421H85.9678V4.67352Z" fill="white"/>
<path d="M117.345 18.4699H106.682L104.627 23.421H99.1848L109.459 0.334351H114.734L125.008 23.421H119.399L117.345 18.4699ZM115.679 14.4088L112.013 5.56361L108.348 14.4088H115.623H115.679Z" fill="white"/>
<path d="M129.117 0.334351H134.449V19.0262H146V23.421H129.117V0.334351Z" fill="white"/>
<path d="M16.8828 43.614C18.2156 44.0034 19.2153 44.7266 19.9927 45.7279C20.7147 46.7293 21.1034 47.8975 21.1034 49.3439C21.1034 51.3466 20.3259 52.9042 18.771 54.0168C17.216 55.1295 14.9391 55.6301 11.9402 55.6301H0.0558472V32.5435H11.2738C14.1061 32.5435 16.2164 33.0998 17.7158 34.1568C19.2153 35.2138 19.9927 36.7158 19.9927 38.5516C19.9927 39.6642 19.7151 40.6656 19.2153 41.5556C18.6599 42.4457 17.938 43.1133 16.9383 43.614H16.8828ZM5.27609 36.5489V42.0007H10.5519C11.8847 42.0007 12.8843 41.7782 13.5507 41.3331C14.2172 40.8881 14.5504 40.1649 14.5504 39.2748C14.5504 38.3847 14.2172 37.7171 13.5507 37.2721C12.8843 36.8271 11.8847 36.6045 10.5519 36.6045H5.27609V36.5489ZM11.496 51.5691C12.8843 51.5691 13.9395 51.3466 14.6614 50.9015C15.3834 50.4565 15.7166 49.7333 15.7166 48.7876C15.7166 46.8962 14.3282 45.8948 11.496 45.8948H5.27609V51.5691H11.496Z" fill="white"/>
<path d="M42.9836 51.3466V55.6301H25.157V32.5435H42.5393V36.8271H30.4328V41.8338H41.151V46.0061H30.4328V51.3466H42.9836Z" fill="white"/>
<path d="M65.0305 51.3466V55.6301H47.2039V32.5435H64.6418V36.8271H52.5352V41.8338H63.1979V46.0061H52.5352V51.3466H65.0305Z" fill="white"/>
<path d="M78.5814 32.5435H83.9127V51.291H95.4639V55.6301H78.5814V32.5435Z" fill="white"/>
<path d="M113.79 50.679H103.128L101.073 55.6301H95.6306L105.905 32.5435H111.18L121.454 55.6301H115.845L113.79 50.679ZM112.124 46.618L108.459 37.7728L104.794 46.618H112.069H112.124Z" fill="white"/>
<path d="M140.725 43.614C142.058 44.0034 143.057 44.7266 143.835 45.7279C144.557 46.7293 144.945 47.8975 144.945 49.3439C144.945 51.3466 144.168 52.9042 142.613 54.0168C141.058 55.1295 138.781 55.6301 135.782 55.6301H123.898V32.5435H135.116C137.948 32.5435 140.058 33.0998 141.558 34.1568C143.057 35.2138 143.835 36.7158 143.835 38.5516C143.835 39.6642 143.557 40.6656 143.057 41.5556C142.502 42.4457 141.78 43.1133 140.78 43.614H140.725ZM129.118 36.5489V42.0007H134.394C135.727 42.0007 136.726 41.7782 137.393 41.3331C138.059 40.8881 138.392 40.1649 138.392 39.2748C138.392 38.3847 138.059 37.7171 137.393 37.2721C136.726 36.8271 135.727 36.6045 134.394 36.6045H129.118V36.5489ZM135.338 51.5691C136.726 51.5691 137.781 51.3466 138.503 50.9015C139.225 50.4565 139.559 49.7333 139.559 48.7876C139.559 46.8962 138.17 45.8948 135.338 45.8948H129.118V51.5691H135.338Z" fill="white"/>
<path d="M9.77408 72.5424C10.7737 72.7649 11.5512 73.2099 12.1065 73.8775C12.6619 74.5451 12.9395 75.3795 12.9395 76.4365C12.9395 77.7716 12.4397 78.773 11.4401 79.4962C10.4405 80.2193 8.99659 80.5531 7.10842 80.5531H0V65.0323H6.66414C8.38571 65.0323 9.71854 65.366 10.6626 66.0892C11.6067 66.8124 12.1065 67.7581 12.1065 69.0376C12.1065 69.8721 11.8844 70.6509 11.4956 71.2072C11.0514 71.8192 10.496 72.2642 9.77408 72.5424ZM1.66604 66.3674V71.9861H6.60861C7.8859 71.9861 8.82999 71.7635 9.4964 71.2629C10.1628 70.7622 10.496 70.0946 10.496 69.1489C10.496 68.2588 10.1628 67.5356 9.4964 67.035C8.82999 66.5343 7.83037 66.3118 6.60861 66.3118H1.66604V66.3674ZM7.16395 79.218C8.55232 79.218 9.60747 78.9955 10.3294 78.4948C11.0514 78.0498 11.3846 77.2709 11.3846 76.2696C11.3846 74.3225 9.99621 73.3768 7.16395 73.3768H1.66604V79.218H7.16395Z" fill="#FFEE00"/>
<path d="M27.6559 79.1624V80.5531H16.7156V65.0323H27.3227V66.423H18.3261V71.9861H26.3786V73.3768H18.3261V79.1624H27.6559Z" fill="#FFEE00"/>
<path d="M42.4841 79.1624V80.5531H31.5438V65.0323H42.1509V66.423H33.1543V71.9861H41.1512V73.3768H33.1543V79.1624H42.4841Z" fill="#FFEE00"/>
<path d="M58.9216 80.6644C57.3667 80.6644 55.9783 80.3306 54.7565 79.6074C53.5348 78.9399 52.5352 77.9942 51.8132 76.7703C51.0913 75.5464 50.7581 74.2113 50.7581 72.7093C50.7581 71.2072 51.0913 69.8721 51.8132 68.6483C52.5352 67.4244 53.4792 66.5343 54.7565 65.8111C55.9783 65.1435 57.4222 64.7541 58.9216 64.7541C60.4766 64.7541 61.865 65.0879 63.0867 65.7555C64.3085 66.423 65.3081 67.3688 65.9745 68.5926C66.6965 69.8165 67.0297 71.1516 67.0297 72.6536C67.0297 74.1557 66.6965 75.4908 65.9745 76.7147C65.2526 77.9385 64.3085 78.8842 63.0867 79.5518C61.865 80.2194 60.4766 80.5532 58.9216 80.5532V80.6644ZM58.9216 79.218C60.1434 79.218 61.2541 78.9399 62.2537 78.3836C63.2533 77.8273 64.0308 77.0484 64.5862 76.1027C65.1415 75.1014 65.4192 74.0444 65.4192 72.8205C65.4192 71.5967 65.1415 70.4841 64.5862 69.5383C64.0308 68.537 63.2533 67.7582 62.2537 67.2575C61.2541 66.7012 60.1434 66.423 58.9216 66.423C57.6999 66.423 56.5892 66.7012 55.5896 67.2575C54.5899 67.8138 53.8125 68.5926 53.2571 69.5383C52.7018 70.5397 52.4241 71.5967 52.4241 72.8205C52.4241 74.0444 52.7018 75.157 53.2571 76.1027C53.8125 77.1041 54.5899 77.8273 55.5896 78.3836C56.5892 78.9399 57.6999 79.218 58.9216 79.218Z" fill="#FFEE00"/>
<path d="M83.6906 65.0323V80.5531H82.3023L72.3616 67.9807V80.5531H70.6956V65.0323H72.0839L82.0801 77.6047V65.0323H83.6906Z" fill="#FFEE00"/>
<path d="M87.5226 73.8772H93.3538V75.2123H87.5226V73.8772Z" fill="#FFEE00"/>
<path d="M97.1857 65.0323H98.7962V79.1624H107.515V80.5531H97.1857V65.0323Z" fill="#FFEE00"/>
<path d="M110.235 65.0323H111.846V80.5531H110.235V65.0323Z" fill="#FFEE00"/>
<path d="M129.895 65.0323V80.5531H128.507L118.566 67.9807V80.5531H116.9V65.0323H118.288L128.229 77.6047V65.0323H129.895Z" fill="#FFEE00"/>
<path d="M145.889 79.1624V80.5531H134.949V65.0323H145.556V66.423H136.559V71.9861H144.556V73.3768H136.559V79.1624H145.889Z" fill="#FFEE00"/>
<path d="M71.6947 164.328C75.6512 164.328 78.8586 161.12 78.8586 157.164C78.8586 153.207 75.6512 150 71.6947 150C67.7382 150 64.5308 153.207 64.5308 157.164C64.5308 161.12 67.7382 164.328 71.6947 164.328Z" fill="white"/>
<path d="M71.6951 319.101C73.8421 319.101 75.5825 317.361 75.5825 315.214C75.5825 313.067 73.8421 311.327 71.6951 311.327C69.5482 311.327 67.8077 313.067 67.8077 315.214C67.8077 317.361 69.5482 319.101 71.6951 319.101Z" fill="white"/>
<path d="M88.7999 174.213C92.7564 174.213 95.9638 171.006 95.9638 167.049C95.9638 163.093 92.7564 159.885 88.7999 159.885C84.8434 159.885 81.636 163.093 81.636 167.049C81.636 171.006 84.8434 174.213 88.7999 174.213Z" fill="white"/>
<path d="M88.7992 309.939C91.3142 309.939 93.353 307.9 93.353 305.385C93.353 302.87 91.3142 300.831 88.7992 300.831C86.2842 300.831 84.2454 302.87 84.2454 305.385C84.2454 307.9 86.2842 309.939 88.7992 309.939Z" fill="white"/>
<path d="M105.959 183.82C109.916 183.82 113.123 180.613 113.123 176.656C113.123 172.7 109.916 169.492 105.959 169.492C102.003 169.492 98.7955 172.7 98.7955 176.656C98.7955 180.613 102.003 183.82 105.959 183.82Z" fill="white"/>
<path d="M123.065 193.928C127.021 193.928 130.229 190.72 130.229 186.764C130.229 182.807 127.021 179.6 123.065 179.6C119.108 179.6 115.901 182.807 115.901 186.764C115.901 190.72 119.108 193.928 123.065 193.928Z" fill="white"/>
<path d="M123.064 290.168C125.579 290.168 127.618 288.13 127.618 285.615C127.618 283.1 125.579 281.061 123.064 281.061C120.549 281.061 118.51 283.1 118.51 285.615C118.51 288.13 120.549 290.168 123.064 290.168Z" fill="white"/>
<path d="M140.169 202.479C143.389 202.479 146 199.869 146 196.648C146 193.428 143.389 190.817 140.169 190.817C136.948 190.817 134.338 193.428 134.338 196.648C134.338 199.869 136.948 202.479 140.169 202.479Z" fill="white"/>
<path d="M140.169 261.791C143.389 261.791 146 259.18 146 255.96C146 252.739 143.389 250.129 140.169 250.129C136.948 250.129 134.338 252.739 134.338 255.96C134.338 259.18 136.948 261.791 140.169 261.791Z" fill="white"/>
<path d="M140.169 242.02C143.389 242.02 146 239.41 146 236.189C146 232.969 143.389 230.358 140.169 230.358C136.948 230.358 134.338 232.969 134.338 236.189C134.338 239.41 136.948 242.02 140.169 242.02Z" fill="white"/>
<path d="M140.169 222.25C143.389 222.25 146 219.639 146 216.419C146 213.198 143.389 210.588 140.169 210.588C136.948 210.588 134.338 213.198 134.338 216.419C134.338 219.639 136.948 222.25 140.169 222.25Z" fill="white"/>
<path d="M54.5897 168.993C55.6632 168.993 56.5334 168.123 56.5334 167.049C56.5334 165.976 55.6632 165.106 54.5897 165.106C53.5162 165.106 52.646 165.976 52.646 167.049C52.646 168.123 53.5162 168.993 54.5897 168.993Z" fill="white"/>
<path d="M71.5841 220.313C73.7287 220.297 75.4538 218.545 75.4374 216.4C75.4209 214.256 73.6691 212.531 71.5245 212.547C69.38 212.564 67.6548 214.315 67.6713 216.46C67.6877 218.604 69.4396 220.33 71.5841 220.313Z" fill="white"/>
<path d="M71.8824 259.19C73.6696 259.176 75.1072 257.716 75.0935 255.929C75.0798 254.142 73.6199 252.704 71.8327 252.718C70.0456 252.732 68.6079 254.191 68.6216 255.979C68.6353 257.766 70.0952 259.203 71.8824 259.19Z" fill="white"/>
<path d="M88.7754 230.063C90.92 230.046 92.6451 228.294 92.6287 226.15C92.6122 224.005 90.8604 222.28 88.7158 222.296C86.5712 222.313 84.846 224.065 84.8624 226.209C84.8789 228.354 86.6308 230.079 88.7754 230.063Z" fill="white"/>
<path d="M54.5297 228.384C53.4574 228.392 52.5815 227.53 52.5732 226.457C52.565 225.385 53.4276 224.509 54.4999 224.501C55.5722 224.493 56.4481 225.355 56.4564 226.428C56.4646 227.5 55.602 228.376 54.5297 228.384Z" fill="white"/>
<path d="M54.5899 309.272C56.7369 309.272 58.4773 307.532 58.4773 305.385C58.4773 303.238 56.7369 301.497 54.5899 301.497C52.443 301.497 50.7025 303.238 50.7025 305.385C50.7025 307.532 52.443 309.272 54.5899 309.272Z" fill="white"/>
<path d="M37.486 178.6C38.5595 178.6 39.4297 177.73 39.4297 176.657C39.4297 175.583 38.5595 174.713 37.486 174.713C36.4125 174.713 35.5423 175.583 35.5423 176.657C35.5423 177.73 36.4125 178.6 37.486 178.6Z" fill="white"/>
<path d="M71.4379 201.206C73.9399 201.187 75.9526 199.143 75.9334 196.641C75.9142 194.139 73.8704 192.126 71.3684 192.146C68.8663 192.165 66.8536 194.209 66.8728 196.711C66.892 199.213 68.9359 201.225 71.4379 201.206Z" fill="white"/>
<path d="M88.629 210.954C91.131 210.935 93.1437 208.891 93.1245 206.389C93.1053 203.887 91.0615 201.874 88.5595 201.894C86.0574 201.913 84.0447 203.957 84.0639 206.459C84.0831 208.961 86.127 210.973 88.629 210.954Z" fill="white"/>
<path d="M89.0734 268.946C90.8604 268.932 92.298 267.472 92.2843 265.685C92.2706 263.898 90.8108 262.46 89.0237 262.474C87.2366 262.488 85.799 263.948 85.8127 265.735C85.8264 267.522 87.2863 268.959 89.0734 268.946Z" fill="white"/>
<path d="M105.964 239.565C108.108 239.549 109.833 237.797 109.817 235.652C109.8 233.508 108.048 231.783 105.904 231.799C103.759 231.816 102.034 233.568 102.051 235.712C102.067 237.857 103.819 239.582 105.964 239.565Z" fill="white"/>
<path d="M105.812 219.803C107.956 219.787 109.681 218.035 109.665 215.89C109.648 213.746 107.897 212.021 105.752 212.037C103.608 212.054 101.882 213.806 101.899 215.95C101.915 218.094 103.667 219.82 105.812 219.803Z" fill="white"/>
<path d="M54.3794 208.629C53.3072 208.637 52.4313 207.775 52.423 206.702C52.4148 205.63 53.2774 204.754 54.3496 204.746C55.4219 204.738 56.2977 205.6 56.306 206.673C56.3142 207.745 55.4516 208.621 54.3794 208.629Z" fill="white"/>
<path d="M54.8393 268.561C53.4096 268.572 52.2417 267.422 52.2308 265.992C52.2198 264.563 53.3699 263.395 54.7996 263.384C56.2293 263.373 57.3971 264.523 57.4081 265.953C57.4191 267.382 56.269 268.55 54.8393 268.561Z" fill="white"/>
<path d="M37.4949 238.797C36.0652 238.807 34.8973 237.657 34.8864 236.228C34.8754 234.798 36.0255 233.63 37.4552 233.619C38.8848 233.608 40.0527 234.758 40.0637 236.188C40.0747 237.618 38.9246 238.786 37.4949 238.797Z" fill="white"/>
<path d="M37.3387 218.388C36.2664 218.396 35.3905 217.534 35.3823 216.462C35.374 215.389 36.2366 214.514 37.3089 214.505C38.3811 214.497 39.257 215.36 39.2653 216.432C39.2735 217.504 38.4109 218.38 37.3387 218.388Z" fill="white"/>
<path d="M20.3808 188.708C21.4543 188.708 22.3245 187.838 22.3245 186.764C22.3245 185.691 21.4543 184.82 20.3808 184.82C19.3074 184.82 18.4371 185.691 18.4371 186.764C18.4371 187.838 19.3074 188.708 20.3808 188.708Z" fill="white"/>
<path d="M20.3809 289.502C22.5279 289.502 24.2683 287.761 24.2683 285.614C24.2683 283.467 22.5279 281.727 20.3809 281.727C18.234 281.727 16.4935 283.467 16.4935 285.614C16.4935 287.761 18.234 289.502 20.3809 289.502Z" fill="white"/>
<path d="M71.6946 298.721C73.4735 298.721 74.9156 297.279 74.9156 295.5C74.9156 293.722 73.4735 292.279 71.6946 292.279C69.9157 292.279 68.4736 293.722 68.4736 295.5C68.4736 297.279 69.9157 298.721 71.6946 298.721Z" fill="white"/>
<path d="M71.6952 182.71C74.9157 182.71 77.5263 180.099 77.5263 176.879C77.5263 173.658 74.9157 171.048 71.6952 171.048C68.4748 171.048 65.8641 173.658 65.8641 176.879C65.8641 180.099 68.4748 182.71 71.6952 182.71Z" fill="white"/>
<path d="M88.7989 192.595C92.0194 192.595 94.63 189.985 94.63 186.764C94.63 183.544 92.0194 180.933 88.7989 180.933C85.5785 180.933 82.9678 183.544 82.9678 186.764C82.9678 189.985 85.5785 192.595 88.7989 192.595Z" fill="white"/>
<path d="M105.96 279.34C108.107 279.34 109.847 277.599 109.847 275.453C109.847 273.306 108.107 271.565 105.96 271.565C103.813 271.565 102.073 273.306 102.073 275.453C102.073 277.599 103.813 279.34 105.96 279.34Z" fill="white"/>
<path d="M105.96 202.257C109.18 202.257 111.791 199.647 111.791 196.426C111.791 193.206 109.18 190.595 105.96 190.595C102.74 190.595 100.129 193.206 100.129 196.426C100.129 199.647 102.74 202.257 105.96 202.257Z" fill="white"/>
<path d="M123.064 250.629C125.579 250.629 127.618 248.59 127.618 246.075C127.618 243.56 125.579 241.521 123.064 241.521C120.549 241.521 118.51 243.56 118.51 246.075C118.51 248.59 120.549 250.629 123.064 250.629Z" fill="white"/>
<path d="M123.064 230.858C125.579 230.858 127.618 228.819 127.618 226.304C127.618 223.789 125.579 221.751 123.064 221.751C120.549 221.751 118.51 223.789 118.51 226.304C118.51 228.819 120.549 230.858 123.064 230.858Z" fill="white"/>
<path d="M123.064 211.088C125.579 211.088 127.618 209.049 127.618 206.534C127.618 204.019 125.579 201.98 123.064 201.98C120.549 201.98 118.51 204.019 118.51 206.534C118.51 209.049 120.549 211.088 123.064 211.088Z" fill="white"/>
<path d="M54.5897 188.708C55.6632 188.708 56.5334 187.838 56.5334 186.764C56.5334 185.691 55.6632 184.82 54.5897 184.82C53.5162 184.82 52.646 185.691 52.646 186.764C52.646 187.838 53.5162 188.708 54.5897 188.708Z" fill="white"/>
<path d="M37.4858 278.673C39.2647 278.673 40.7067 277.231 40.7067 275.452C40.7067 273.673 39.2647 272.231 37.4858 272.231C35.7069 272.231 34.2648 273.673 34.2648 275.452C34.2648 277.231 35.7069 278.673 37.4858 278.673Z" fill="white"/>
<path d="M37.486 198.371C38.5595 198.371 39.4297 197.501 39.4297 196.427C39.4297 195.354 38.5595 194.484 37.486 194.484C36.4125 194.484 35.5423 195.354 35.5423 196.427C35.5423 197.501 36.4125 198.371 37.486 198.371Z" fill="white"/>
<path d="M20.3813 248.685C21.8228 248.685 22.9914 247.516 22.9914 246.075C22.9914 244.633 21.8228 243.465 20.3813 243.465C18.9398 243.465 17.7712 244.633 17.7712 246.075C17.7712 247.516 18.9398 248.685 20.3813 248.685Z" fill="white"/>
<path d="M20.3813 228.914C21.8228 228.914 22.9914 227.746 22.9914 226.304C22.9914 224.863 21.8228 223.694 20.3813 223.694C18.9398 223.694 17.7712 224.863 17.7712 226.304C17.7712 227.746 18.9398 228.914 20.3813 228.914Z" fill="white"/>
<path d="M20.3808 208.478C21.4543 208.478 22.3245 207.608 22.3245 206.535C22.3245 205.461 21.4543 204.591 20.3808 204.591C19.3074 204.591 18.4371 205.461 18.4371 206.535C18.4371 207.608 19.3074 208.478 20.3808 208.478Z" fill="white"/>
<path d="M3.22129 198.593C4.29476 198.593 5.16499 197.723 5.16499 196.649C5.16499 195.576 4.29476 194.706 3.22129 194.706C2.14781 194.706 1.27759 195.576 1.27759 196.649C1.27759 197.723 2.14781 198.593 3.22129 198.593Z" fill="white"/>
<path d="M3.22099 259.18C4.99989 259.18 6.44197 257.738 6.44197 255.959C6.44197 254.18 4.99989 252.738 3.22099 252.738C1.44208 252.738 0 254.18 0 255.959C0 257.738 1.44208 259.18 3.22099 259.18Z" fill="white"/>
<path d="M3.22099 239.41C4.99989 239.41 6.44197 237.968 6.44197 236.189C6.44197 234.41 4.99989 232.968 3.22099 232.968C1.44208 232.968 0 234.41 0 236.189C0 237.968 1.44208 239.41 3.22099 239.41Z" fill="white"/>
<path d="M3.22099 219.641C4.99989 219.641 6.44197 218.198 6.44197 216.42C6.44197 214.641 4.99989 213.199 3.22099 213.199C1.44208 213.199 0 214.641 0 216.42C0 218.198 1.44208 219.641 3.22099 219.641Z" fill="white"/>
<path d="M105.959 299.776C108.474 299.776 110.513 297.737 110.513 295.222C110.513 292.707 108.474 290.668 105.959 290.668C103.444 290.668 101.405 292.707 101.405 295.222C101.405 297.737 103.444 299.776 105.959 299.776Z" fill="#FFEE00"/>
<path d="M140.169 280.283C142.684 280.283 144.723 278.244 144.723 275.729C144.723 273.214 142.684 271.176 140.169 271.176C137.654 271.176 135.615 273.214 135.615 275.729C135.615 278.244 137.654 280.283 140.169 280.283Z" fill="#FFEE00"/>
<path d="M88.9217 249.177C90.7088 249.163 92.1465 247.703 92.1328 245.916C92.1191 244.129 90.6592 242.691 88.872 242.705C87.0849 242.719 85.6472 244.179 85.6609 245.966C85.6747 247.753 87.1345 249.191 88.9217 249.177Z" fill="#FFEE00"/>
<path d="M54.686 248.792C53.2563 248.803 52.0884 247.653 52.0774 246.223C52.0665 244.794 53.2166 243.626 54.6462 243.615C56.0759 243.604 57.2438 244.754 57.2548 246.184C57.2658 247.613 56.1157 248.781 54.686 248.792Z" fill="#FFEE00"/>
<path d="M72.0302 278.311C73.4599 278.3 74.61 277.132 74.599 275.702C74.588 274.273 73.4201 273.122 71.9905 273.133C70.5608 273.144 69.4107 274.312 69.4217 275.742C69.4326 277.172 70.6005 278.322 72.0302 278.311Z" fill="#FFEE00"/>
<path d="M106.11 258.68C107.897 258.666 109.335 257.206 109.321 255.419C109.307 253.632 107.847 252.194 106.06 252.208C104.273 252.222 102.835 253.681 102.849 255.468C102.863 257.256 104.323 258.693 106.11 258.68Z" fill="#FFEE00"/>
<path d="M37.6468 258.558C36.2171 258.569 35.0492 257.419 35.0383 255.99C35.0273 254.56 36.1774 253.392 37.607 253.381C39.0367 253.37 40.2046 254.52 40.2155 255.95C40.2265 257.38 39.0764 258.547 37.6468 258.558Z" fill="#FFEE00"/>
<path d="M37.4862 299.109C39.6331 299.109 41.3735 297.368 41.3735 295.222C41.3735 293.075 39.6331 291.334 37.4862 291.334C35.3392 291.334 33.5988 293.075 33.5988 295.222C33.5988 297.368 35.3392 299.109 37.4862 299.109Z" fill="#FFEE00"/>
<path d="M88.7988 289.501C90.9458 289.501 92.6862 287.761 92.6862 285.614C92.6862 283.467 90.9458 281.727 88.7988 281.727C86.6519 281.727 84.9114 283.467 84.9114 285.614C84.9114 287.761 86.6519 289.501 88.7988 289.501Z" fill="#FFEE00"/>
<path d="M123.064 269.732C125.21 269.732 126.951 267.992 126.951 265.845C126.951 263.698 125.21 261.958 123.064 261.958C120.917 261.958 119.176 263.698 119.176 265.845C119.176 267.992 120.917 269.732 123.064 269.732Z" fill="#FFEE00"/>
<path d="M54.5894 288.836C56.3683 288.836 57.8104 287.394 57.8104 285.615C57.8104 283.836 56.3683 282.394 54.5894 282.394C52.8105 282.394 51.3684 283.836 51.3684 285.615C51.3684 287.394 52.8105 288.836 54.5894 288.836Z" fill="#FFEE00"/>
<path d="M20.3813 268.454C21.8228 268.454 22.9914 267.285 22.9914 265.844C22.9914 264.402 21.8228 263.234 20.3813 263.234C18.9398 263.234 17.7712 264.402 17.7712 265.844C17.7712 267.285 18.9398 268.454 20.3813 268.454Z" fill="#FFEE00"/>
<path d="M3.22099 278.951C4.99989 278.951 6.44197 277.509 6.44197 275.73C6.44197 273.951 4.99989 272.509 3.22099 272.509C1.44208 272.509 0 273.951 0 275.73C0 277.509 1.44208 278.951 3.22099 278.951Z" fill="#FFEE00"/>
<path d="M71.6949 238.133C72.7684 238.133 73.6386 237.263 73.6386 236.189C73.6386 235.116 72.7684 234.245 71.6949 234.245C70.6214 234.245 69.7512 235.116 69.7512 236.189C69.7512 237.263 70.6214 238.133 71.6949 238.133Z" fill="#FFEE00"/>
</svg>
